# xmcd CD database file
#
# Track frame offsets:
#	150
#	17710
#	33860
#
# Disc length: 791 seconds
#
# Revision: 1
# Processed by: cddbd v1.5.1PL2 Copyright (c) Steve Scherf et al.
# Submitted via: CDex 1.51
#
DISCID=17031503
DTITLE=KICK THE CAN CREW - マルシェ
DYEAR=2002
DGENRE=Hip-Hop
TTITLE0=マルシェ
TTITLE1=C'MON EVERYBODY
TTITLE2=イツナロウバ live at NAGOYA QUATTRO (3MCs+1DJ tour final）
EXTD=YEAR: 2002
EXTT0=
EXTT1=
EXTT2=
PLAYORDER=
